# xmcd
#
# Track frame offsets:
#	150
#	11422
#	21485
#	31813
#	43450
#	56724
#	68191
#	80823
#	93438
#	106258
#	119383
#	132036
#	143125
#	154515
#	165673
#	178552
#	188493
#	199378
#	211208
#	222152
#	233875
#	246508
#	258150
#	270567
#	278812
#	291832
#	302558
#	314824
#	326588
#	337049
#
# Disc length: 4656 seconds
#
# Revision: 1
# Processed by: cddbd v1.5.2PL0 Copyright (c) Steve Scherf et al.
# Submitted via: audiograbber 1.83.01
#
DISCID=c2122e1e
DTITLE=Wells, Kitty - For Always - 60 Greatest Hits and Country Classics
DYEAR=2017
DGENRE=Country
TTITLE0=It Wasn't God Who Made Honky Tonk Angels
TTITLE1=I Heard The Juke Box Playing
TTITLE2=A Wedding Ring Ago
TTITLE3=Paying For That Back Street Affair
TTITLE4=I Don't Claim To Be An Angel
TTITLE5=Hey Joe
TTITLE6=Cheatin's A Sin
TTITLE7=Release Me
TTITLE8=After Dark
TTITLE9=One By One (with Red Foley)
TTITLE10=I'm A Stranger In My Home (with Red Foley)
TTITLE11=Thou Shalt Not Steal
TTITLE12=As Long As I Live (with Red Foley)
TTITLE13=Make Believe ('Til We Can Make It Come True (with Red Foley)
TTITLE14=Makin' Believe
TTITLE15=Whose Shoulder Will You Cry On
TTITLE16=I'm In Love With You
TTITLE17=Lonely Side Of Town
TTITLE18=I've Kissed You My Last Time
TTITLE19=I Gave My Wedding Dress Away
TTITLE20=My Cold Cold Heart Is Melted Now
TTITLE21=There's Poison In Your Heart
TTITLE22=You And Me (with Red Foley)
TTITLE23=No One But You (with Red Foley)
TTITLE24=How Far Is Heaven (with Carol Sue Wright)
TTITLE25=Searching (For Someone Like You)
TTITLE26=I'd Rather Stay Home
TTITLE27=Repenting
TTITLE28=I'm Counting On You
TTITLE29=Oh! So Many Years (with Webb Pierce)
EXTD=
EXTT0=
EXTT1=
EXTT2=
EXTT3=
EXTT4=
EXTT5=
EXTT6=
EXTT7=
EXTT8=
EXTT9=
EXTT10=
EXTT11=
EXTT12=
EXTT13=
EXTT14=
EXTT15=
EXTT16=
EXTT17=
EXTT18=
EXTT19=
EXTT20=
EXTT21=
EXTT22=
EXTT23=
EXTT24=
EXTT25=
EXTT26=
EXTT27=
EXTT28=
EXTT29=
PLAYORDER=
